<?xml version="1.0" encoding="UTF-8" standalone="no"?>
<!DOCTYPE svg PUBLIC "-//W3C//DTD SVG 1.1//EN" "http://www.w3.org/Graphics/SVG/1.1/DTD/svg11.dtd">
<svg width="100%" height="100%" viewBox="0 0 850 850" version="1.1" xmlns="http://www.w3.org/2000/svg" xmlns:xlink="http://www.w3.org/1999/xlink" xml:space="preserve" xmlns:serif="http://www.serif.com/" style="fill-rule:evenodd;clip-rule:evenodd;stroke-linejoin:round;stroke-miterlimit:2;">
    <g transform="matrix(1,0,0,1,-2996.27,-1103.87)">
        <g id="LΞD" transform="matrix(1,0,0,1,1081.1,1081.25)">
            <rect x="1915.17" y="22.625" width="849.051" height="849.051" style="fill:none;"/>
            <g transform="matrix(0.653002,0,0,0.614717,1793.53,-305.409)">
                <path d="M586.25,1296.32C561.799,1296.49 542.03,1296.58 528.798,1296.54C513.397,1296.49 504.123,1295.77 502.32,1295.47C472.479,1290.39 465.498,1268.73 463.471,1263.14C463.146,1262.24 460.512,1256.02 460.393,1244.42C460.258,1231.22 461.889,1165.42 482.754,1087.87C519.122,952.705 612.6,785.513 841.726,779.358C1036.46,774.127 1130.3,892.738 1174.77,1013.62C1216.34,1126.63 1212.31,1240.87 1212.31,1240.87C1211.39,1267.52 1189.73,1288.75 1163.07,1289.14C1163.07,1289.14 1134.65,1289.56 1089.65,1290.19L1087.44,1503.15C1087.16,1530.74 1064.52,1552.91 1036.93,1552.63C1009.33,1552.34 987.162,1529.71 987.448,1502.11L989.63,1291.58C957.898,1292.02 923.675,1292.47 888.634,1292.93C888.169,1334.53 886.946,1455.17 886.946,1572.67C886.946,1649.58 859.058,1696 828.016,1724.94C778.656,1770.95 716.729,1772.9 716.729,1772.9C716.53,1772.91 716.332,1772.92 716.134,1772.92L533.091,1778.1C505.506,1778.88 482.478,1757.12 481.698,1729.53C480.918,1701.95 502.68,1678.92 530.265,1678.14C530.265,1678.14 713.308,1672.97 712.713,1672.99C712.713,1672.99 738.786,1671.41 759.83,1651.79C775.731,1636.97 786.946,1612.07 786.946,1572.67C786.946,1456.9 788.128,1338.1 788.614,1294.19C753.152,1294.63 718.462,1295.03 686.265,1295.38L684.112,1503.15C683.826,1530.74 661.19,1552.91 633.596,1552.63C606.002,1552.34 583.831,1529.71 584.117,1502.11L586.25,1296.32ZM1110.68,1189.88C1107.78,1153.44 1100.23,1100.64 1080.92,1048.15C1049.18,961.88 983.384,875.589 844.411,879.322C717.652,882.727 648.111,954.088 609.873,1031.51C580.453,1091.07 568.411,1154.11 563.581,1196.45C686.421,1195.82 989.801,1191.61 1110.68,1189.88ZM462.875,719.219L460.398,828.061C459.77,855.649 481.659,878.558 509.247,879.185C536.836,879.813 559.744,857.924 560.372,830.336L562.849,721.494C563.476,693.905 541.588,670.997 513.999,670.369C486.41,669.741 463.502,691.63 462.875,719.219Z" style="fill:white;"/>
            </g>
        </g>
        <g id="Layer-1" serif:id="Layer 1">
        </g>
    </g>
</svg>
